<svg version="1.1" xmlns="http://www.w3.org/2000/svg" viewBox="0 0 1184 747" width="1184" height="747">
  <!-- svg-source:excalidraw -->
  
  <defs>
    <style class="style-fonts">
      @font-face {
        font-family: "Virgil";
        src: url("https://excalidraw.com/Virgil.woff2");
      }
      @font-face {
        font-family: "Cascadia";
        src: url("https://excalidraw.com/Cascadia.woff2");
      }
    </style>
  </defs>
  <rect x="0" y="0" width="1184" height="747" fill="#ffffff"></rect><g stroke-linecap="round" transform="translate(10 10) rotate(0 582 363.5)"><path d="M32 0 M32 0 C258.02 -0.71, 485.48 0.35, 1132 0 M32 0 C391.72 1.65, 751.8 1.95, 1132 0 M1132 0 C1152.61 -0.06, 1162.25 11.9, 1164 32 M1132 0 C1151.62 0.15, 1161.78 9.06, 1164 32 M1164 32 C1163.4 201.89, 1164.36 371.17, 1164 695 M1164 32 C1164.55 204.71, 1164.69 376.73, 1164 695 M1164 695 C1164.72 715.79, 1154.12 728.89, 1132 727 M1164 695 C1165.98 716.46, 1151.13 726.93, 1132 727 M1132 727 C872.36 728.83, 612.49 729.35, 32 727 M1132 727 C821.56 729.97, 511.09 730.03, 32 727 M32 727 C10.62 728.58, 1.73 718.06, 0 695 M32 727 C9.46 726.55, -2.16 715.84, 0 695 M0 695 C1.2 557.66, 0.9 419.99, 0 32 M0 695 C-1.92 556.92, -1.6 419.79, 0 32 M0 32 C-1.46 8.88, 12.12 -1.27, 32 0 M0 32 C-1.66 10.21, 10.25 -1.93, 32 0" stroke="#000000" stroke-width="1" fill="none"></path></g><g transform="translate(465 35) rotate(0 48.5 27)"><text x="0" y="38" font-family="Virgil, Segoe UI Emoji" font-size="43.043478260869584px" fill="#000000" text-anchor="start" style="white-space: pre;" direction="ltr">User</text></g><g stroke-linecap="round"><g transform="translate(521.3833348412197 102) rotate(0 1.7851801020959215 44.60676853135229)"><path d="M-0.67 -1.16 C0.15 13.93, 3.65 75.3, 4.24 90.38 M1.18 0.84 C1.96 15.57, 2.92 73.55, 3.62 88.45" stroke="#000000" stroke-width="1" fill="none"></path></g><g transform="translate(521.3833348412197 102) rotate(0 1.7851801020959215 44.60676853135229)"><path d="M-9.43 61.62 C-4.19 66.15, -3.29 75.09, 3.38 86.82 M-8.09 60.12 C-4.04 72.04, 1.04 82.78, 2.99 87.69" stroke="#000000" stroke-width="1" fill="none"></path></g><g transform="translate(521.3833348412197 102) rotate(0 1.7851801020959215 44.60676853135229)"><path d="M11.08 61 C11.32 65.57, 7.22 74.66, 3.38 86.82 M12.42 59.5 C8.27 71.57, 5.14 82.56, 2.99 87.69" stroke="#000000" stroke-width="1" fill="none"></path></g></g><mask></mask><g transform="translate(458.7037037037037 212) rotate(0 74 26.5)"><text x="0" y="37" font-family="Virgil, Segoe UI Emoji" font-size="41.460905349794245px" fill="#000000" text-anchor="start" style="white-space: pre;" direction="ltr">Channel</text></g><g stroke-linecap="round"><g transform="translate(619 241.68176929351023) rotate(0 44.82064990326768 -14.898129447188353)"><path d="M-0.77 0.25 C14.17 -4.51, 75.43 -23.5, 90.41 -28.41 M1.02 -0.67 C15.77 -5.77, 74.6 -25.52, 89.68 -30.04" stroke="#000000" stroke-width="1" fill="none"></path></g><g transform="translate(619 241.68176929351023) rotate(0 44.82064990326768 -14.898129447188353)"><path d="M66.38 -10.98 C76.15 -19.69, 83.46 -22.97, 89.5 -28.57 M66.62 -10.82 C71.15 -15.67, 76.45 -18.48, 90.17 -29.46" stroke="#000000" stroke-width="1" fill="none"></path></g><g transform="translate(619 241.68176929351023) rotate(0 44.82064990326768 -14.898129447188353)"><path d="M60.11 -30.52 C72.19 -32.07, 81.79 -28.23, 89.5 -28.57 M60.36 -30.36 C66.11 -31.04, 72.74 -29.69, 90.17 -29.46" stroke="#000000" stroke-width="1" fill="none"></path></g></g><mask></mask><g stroke-linecap="round"><g transform="translate(528.4279098267639 279) rotate(0 1.1490559968771663 53.11673101660796)"><path d="M-0.55 0.91 C0.03 18.57, 2.21 87.46, 2.84 104.92 M1.37 0.34 C1.88 18.2, 1.87 88.14, 2.13 105.89" stroke="#000000" stroke-width="1" fill="none"></path></g><g transform="translate(528.4279098267639 279) rotate(0 1.1490559968771663 53.11673101660796)"><path d="M-6.81 78.52 C-7.75 86.31, -3.85 90.72, 2.21 104.18 M-7.58 77.64 C-5.09 86.26, -1.81 95.55, 1.65 106.8" stroke="#000000" stroke-width="1" fill="none"></path></g><g transform="translate(528.4279098267639 279) rotate(0 1.1490559968771663 53.11673101660796)"><path d="M13.71 78.38 C7.65 86.11, 6.42 90.55, 2.21 104.18 M12.94 77.5 C8.67 86.36, 5.19 95.71, 1.65 106.8" stroke="#000000" stroke-width="1" fill="none"></path></g></g><mask></mask><g transform="translate(439 401) rotate(0 91.5 39)"><text x="0" y="55" font-family="Virgil, Segoe UI Emoji" font-size="61.600000000000044px" fill="#000000" text-anchor="start" style="white-space: pre;" direction="ltr">Videos</text></g><g transform="translate(714 183) rotate(0 103.5 23.5)"><text x="0" y="33" font-family="Virgil, Segoe UI Emoji" font-size="36.99115044247789px" fill="#000000" text-anchor="start" style="white-space: pre;" direction="ltr">Stream Key</text></g><g stroke-linecap="round"><g transform="translate(813 242) rotate(0 0.4781358544481691 50.29950416796376)"><path d="M0.06 -0.63 C0.39 16.06, 1.86 83.16, 2.32 100.15 M-1.37 1.65 C-1.2 18.47, 0.89 84.39, 1.54 101.23" stroke="#000000" stroke-width="1" fill="none"></path></g><g transform="translate(813 242) rotate(0 0.4781358544481691 50.29950416796376)"><path d="M-10.74 73.95 C-7.4 84.04, -1.81 90.03, 1.08 101.88 M-10.13 72.68 C-6.82 80.68, -3.84 88.64, 0.71 101.9" stroke="#000000" stroke-width="1" fill="none"></path></g><g transform="translate(813 242) rotate(0 0.4781358544481691 50.29950416796376)"><path d="M9.77 73.25 C6.33 83.58, 5.14 89.8, 1.08 101.88 M10.38 71.97 C7.75 80.37, 4.79 88.53, 0.71 101.9" stroke="#000000" stroke-width="1" fill="none"></path></g></g><mask></mask><g transform="translate(757 361) rotate(0 58 35)"><text x="0" y="49" font-family="Virgil, Segoe UI Emoji" font-size="55.58095238095233px" fill="#000000" text-anchor="start" style="white-space: pre;" direction="ltr">OBS</text></g></svg>